<?xml version="1.0" encoding="UTF-8" standalone="no"?>
<svg
   xmlns:dc="http://purl.org/dc/elements/1.1/"
   xmlns:cc="http://creativecommons.org/ns#"
   xmlns:rdf="http://www.w3.org/1999/02/22-rdf-syntax-ns#"
   xmlns:svg="http://www.w3.org/2000/svg"
   xmlns="http://www.w3.org/2000/svg"
   xmlns:sodipodi="http://sodipodi.sourceforge.net/DTD/sodipodi-0.dtd"
   xmlns:inkscape="http://www.inkscape.org/namespaces/inkscape"
   width="55.632645mm"
   height="13.46937mm"
   viewBox="0 0 55.632645 13.46937"
   version="1.1"
   id="svg867"
   inkscape:version="1.0.2 (e86c870879, 2021-01-15, custom)"
   sodipodi:docname="profess.svg">
  <defs
     id="defs861">
    <inkscape:path-effect
       effect="offset"
       id="path-effect1495"
       is_visible="true"
       lpeversion="1"
       linejoin_type="miter"
       unit="mm"
       offset="0"
       miter_limit="4"
       attempt_force_join="true"
       update_on_knot_move="true" />
    <inkscape:path-effect
       effect="fill_between_strokes"
       id="path-effect1493"
       is_visible="true"
       lpeversion="1"
       linkedpath=""
       secondpath=""
       reversesecond="false"
       join="true"
       close="true" />
    <inkscape:path-effect
       effect="clone_original"
       id="path-effect1491"
       is_visible="true"
       lpeversion="1"
       linkeditem=""
       method="d"
       attributes=""
       css_properties=""
       allow_transforms="true" />
    <inkscape:path-effect
       effect="offset"
       id="path-effect1489"
       is_visible="true"
       lpeversion="1"
       linejoin_type="miter"
       unit="mm"
       offset="0"
       miter_limit="4"
       attempt_force_join="true"
       update_on_knot_move="true" />
    <inkscape:path-effect
       effect="offset"
       id="path-effect1487"
       is_visible="true"
       lpeversion="1"
       linejoin_type="miter"
       unit="mm"
       offset="1"
       miter_limit="4"
       attempt_force_join="true"
       update_on_knot_move="true" />
    <inkscape:path-effect
       effect="offset"
       id="path-effect1485"
       is_visible="true"
       lpeversion="1"
       linejoin_type="miter"
       unit="mm"
       offset="0.5"
       miter_limit="4"
       attempt_force_join="true"
       update_on_knot_move="true" />
    <inkscape:path-effect
       effect="offset"
       id="path-effect1483"
       is_visible="true"
       lpeversion="1"
       linejoin_type="miter"
       unit="mm"
       offset="0"
       miter_limit="4"
       attempt_force_join="true"
       update_on_knot_move="true" />
    <rect
       x="76.839989"
       y="122.54308"
       width="7.2162771"
       height="12.962572"
       id="rect1451" />
  </defs>
  <sodipodi:namedview
     id="base"
     pagecolor="#ffffff"
     bordercolor="#666666"
     borderopacity="1.0"
     inkscape:pageopacity="0.0"
     inkscape:pageshadow="2"
     inkscape:zoom="1.979899"
     inkscape:cx="128.2825"
     inkscape:cy="-46.839365"
     inkscape:document-units="mm"
     inkscape:current-layer="text1499"
     inkscape:document-rotation="0"
     showgrid="false"
     inkscape:window-width="1600"
     inkscape:window-height="877"
     inkscape:window-x="-8"
     inkscape:window-y="-8"
     inkscape:window-maximized="1" />
  <metadata
     id="metadata864">
    <rdf:RDF>
      <cc:Work
         rdf:about="">
        <dc:format>image/svg+xml</dc:format>
        <dc:type
           rdf:resource="http://purl.org/dc/dcmitype/StillImage" />
        <dc:title></dc:title>
      </cc:Work>
    </rdf:RDF>
  </metadata>
  <g
     inkscape:label="Layer 1"
     inkscape:groupmode="layer"
     id="layer1"
     transform="translate(-52.907406,-157.9347)">
    <text
       xml:space="preserve"
       id="text1449"
       style="font-size:10.5833px;line-height:1.25;font-family:'Space Mono';-inkscape-font-specification:'Space Mono';letter-spacing:0px;word-spacing:0px;white-space:pre;shape-inside:url(#rect1451);" />
    <g
       aria-label="profess"
       id="text1499"
       style="font-size:10.5833px;line-height:1.25;font-family:'Space Mono';-inkscape-font-specification:'Space Mono';letter-spacing:0px;word-spacing:0px;fill:#808080;stroke:#000000;stroke-width:0.565;stroke-miterlimit:4;stroke-dasharray:none;stroke-opacity:1;paint-order:fill markers stroke">
      <text
         xml:space="preserve"
         style="font-size:10.5833px;line-height:1.25;font-family:'Space Mono';-inkscape-font-specification:'Space Mono';letter-spacing:0px;word-spacing:0px;fill:#808080;fill-opacity:1"
         x="68.688263"
         y="173.85883"
         id="text1545"><tspan
           sodipodi:role="line"
           id="tspan1543"
           x="68.688263"
           y="173.85883" /></text>
      <g
         aria-label="profess"
         id="text1549"
         style="font-style:italic;font-variant:normal;font-weight:normal;font-stretch:normal;font-size:14.1111px;line-height:1.25;font-family:'Space Mono';-inkscape-font-specification:'Space Mono, Italic';font-variant-ligatures:normal;font-variant-caps:normal;font-variant-numeric:normal;font-variant-east-asian:normal;letter-spacing:0px;word-spacing:0px;fill:#808080;fill-opacity:1;stroke:#000000;stroke-width:0.6;stroke-miterlimit:4;stroke-dasharray:none;stroke-opacity:1">
        <path
           d="m 54.363848,170.93474 h -1.086555 l 1.848555,-8.763 q 0.02822,-0.15522 -0.02822,-0.21167 -0.05644,-0.0705 -0.169333,-0.0705 -0.07056,0 -0.127,0.0423 l -0.776111,0.53622 -0.564445,-0.83255 0.663222,-0.45156 q 0.395111,-0.26811 0.860778,-0.26811 0.564445,0 0.889,0.31045 0.338667,0.31044 0.338667,0.90311 v 0.0847 h 0.169333 q 0.423333,-0.635 1.016,-0.95955 0.606778,-0.33867 1.439333,-0.33867 0.578556,0 1.058334,0.21167 0.493889,0.19755 0.832555,0.56444 0.352778,0.35278 0.550334,0.86078 0.197555,0.49389 0.197555,1.07245 0,0.93133 -0.254,1.778 -0.239889,0.84666 -0.733778,1.49577 -0.493889,0.64911 -1.227666,1.03011 -0.733778,0.381 -1.721556,0.381 -0.790222,0 -1.368778,-0.35277 -0.564444,-0.36689 -0.804333,-0.91723 h -0.169333 z m 3.033889,-3.66889 q 0.691445,0 1.227667,-0.28222 0.550333,-0.28222 0.917222,-0.74789 0.381,-0.47978 0.564444,-1.10067 0.197556,-0.62088 0.197556,-1.28411 0,-0.93133 -0.493889,-1.41111 -0.479778,-0.47978 -1.284111,-0.47978 -0.649111,0 -1.185333,0.29634 -0.522111,0.29633 -0.903111,0.77611 -0.381,0.47978 -0.592667,1.08655 -0.211667,0.60678 -0.211667,1.24178 0,0.90311 0.465667,1.41111 0.465667,0.49389 1.298222,0.49389 z"
           style="font-style:italic;font-variant:normal;font-weight:normal;font-stretch:normal;font-size:14.1111px;font-family:'Space Mono';-inkscape-font-specification:'Space Mono, Italic';font-variant-ligatures:normal;font-variant-caps:normal;font-variant-numeric:normal;font-variant-east-asian:normal;fill:#000000;stroke:#000000;stroke-width:0.6;stroke-miterlimit:4;stroke-dasharray:none;stroke-opacity:1"
           id="path1555" />
        <path
           d="m 64.650841,162.32696 q 0.04233,-0.16933 -0.04233,-0.254 -0.08467,-0.0988 -0.211667,-0.0988 -0.112889,0 -0.211666,0.0705 l -1.284111,0.87489 -0.564445,-0.83256 1.255889,-0.84666 q 0.479778,-0.32456 0.973667,-0.32456 0.437444,0 0.762,0.254 0.324555,0.23989 0.366888,0.79022 H 65.8644 q 0.409222,-0.57855 0.917222,-0.80433 0.508,-0.23989 1.058333,-0.23989 1.016,0 1.594556,0.59267 0.578555,0.57855 0.578555,1.53811 0,0.36689 -0.08467,0.74789 l -1.199445,0.0847 q 0.07056,-0.35278 0.07056,-0.59267 0,-0.67733 -0.381,-1.00189 -0.366889,-0.32456 -0.959556,-0.32456 -0.423333,0 -0.776111,0.16934 -0.338666,0.15522 -0.592666,0.43744 -0.254,0.26811 -0.437445,0.635 -0.169333,0.36689 -0.254,0.762 l -0.663222,3.13267 h 1.665111 v 1.016 h -4.487336 v -1.016 h 1.721555 z"
           style="font-style:italic;font-variant:normal;font-weight:normal;font-stretch:normal;font-size:14.1111px;font-family:'Space Mono';-inkscape-font-specification:'Space Mono, Italic';font-variant-ligatures:normal;font-variant-caps:normal;font-variant-numeric:normal;font-variant-east-asian:normal;fill:#000000;stroke:#000000;stroke-width:0.6;stroke-miterlimit:4;stroke-dasharray:none;stroke-opacity:1"
           id="path1557" />
        <path
           d="m 75.191834,160.91585 q 0.606778,0 1.128889,0.21167 0.522111,0.21167 0.903111,0.59267 0.381,0.381 0.592667,0.91722 0.225778,0.52211 0.225778,1.15711 0,0.87489 -0.296334,1.69333 -0.282222,0.80434 -0.846666,1.43934 -0.550334,0.62088 -1.368778,1.00188 -0.804333,0.381 -1.834445,0.381 -0.592666,0 -1.114777,-0.19755 -0.522111,-0.21167 -0.917222,-0.57856 -0.381,-0.36689 -0.606778,-0.889 -0.225778,-0.53622 -0.225778,-1.18533 0,-1.016 0.338667,-1.84856 0.352777,-0.84666 0.945444,-1.43933 0.606778,-0.59267 1.397,-0.91722 0.790222,-0.33867 1.679222,-0.33867 z m -1.255889,6.35 q 0.649111,0 1.199445,-0.28222 0.550333,-0.29633 0.945444,-0.762 0.395111,-0.47978 0.606778,-1.08656 0.225778,-0.60677 0.225778,-1.25588 0,-0.83256 -0.522111,-1.36878 -0.508,-0.55034 -1.439334,-0.55034 -0.606777,0 -1.143,0.26812 -0.536222,0.26811 -0.945444,0.73377 -0.395111,0.46567 -0.635,1.08656 -0.239889,0.60678 -0.239889,1.29822 0,0.84667 0.508,1.38289 0.508,0.53622 1.439333,0.53622 z"
           style="font-style:italic;font-variant:normal;font-weight:normal;font-stretch:normal;font-size:14.1111px;font-family:'Space Mono';-inkscape-font-specification:'Space Mono, Italic';font-variant-ligatures:normal;font-variant-caps:normal;font-variant-numeric:normal;font-variant-east-asian:normal;fill:#808080;fill-opacity:1;stroke:#000000;stroke-width:0.6;stroke-miterlimit:4;stroke-dasharray:none;stroke-opacity:1"
           id="path1559" />
        <path
           d="m 85.549381,161.11341 v 1.016 h -2.667 l -1.693333,7.93044 q -0.112889,0.53622 -0.451556,0.79022 -0.324555,0.254 -0.719666,0.254 -0.451556,0 -0.733778,-0.18344 -0.268111,-0.18345 -0.465667,-0.49389 l -0.620889,-1.00189 0.860778,-0.55033 0.592667,0.94544 q 0.09878,0.16934 0.254,0.16934 0.112889,0 0.155222,-0.0706 0.05644,-0.0564 0.08467,-0.14111 l 1.636888,-7.64822 h -2.158999 v -1.016 h 2.384777 l 0.366889,-1.778 q 0.112889,-0.47978 0.479778,-0.79022 0.366889,-0.31045 0.846667,-0.31045 h 2.525888 v 1.016 h -2.342444 q -0.395111,0 -0.479778,0.42333 l -0.296333,1.43934 z"
           style="font-style:italic;font-variant:normal;font-weight:normal;font-stretch:normal;font-size:14.1111px;font-family:'Space Mono';-inkscape-font-specification:'Space Mono, Italic';font-variant-ligatures:normal;font-variant-caps:normal;font-variant-numeric:normal;font-variant-east-asian:normal;fill:#808080;fill-opacity:1;stroke:#000000;stroke-width:0.6;stroke-miterlimit:4;stroke-dasharray:none;stroke-opacity:1"
           id="path1561" />
        <path
           d="m 87.285041,164.95163 q -0.02822,0.11289 -0.04233,0.254 -0.01411,0.14111 -0.01411,0.29633 0,0.77611 0.451555,1.28411 0.451556,0.49389 1.439334,0.49389 0.493888,0 0.874888,-0.11289 0.395112,-0.11288 0.677334,-0.31044 0.282222,-0.21167 0.479777,-0.46567 0.211667,-0.26811 0.352778,-0.56444 l 0.903111,0.508 q -0.197555,0.40922 -0.493889,0.77611 -0.296333,0.35278 -0.705555,0.62089 -0.409222,0.26811 -0.945444,0.42333 -0.536223,0.15522 -1.227667,0.15522 -0.635,0 -1.171222,-0.19755 -0.522111,-0.18345 -0.903111,-0.53622 -0.381,-0.36689 -0.592667,-0.889 -0.211667,-0.52211 -0.211667,-1.18534 0,-0.889 0.282223,-1.70744 0.282222,-0.83256 0.818444,-1.46756 0.536222,-0.635 1.326444,-1.016 0.790223,-0.39511 1.792111,-0.39511 0.705556,0 1.227667,0.22578 0.522111,0.21167 0.860778,0.59267 0.338666,0.36689 0.508,0.84666 0.169333,0.46567 0.169333,0.97367 0,0.381 -0.08467,0.73378 l -0.155222,0.66322 z m 2.949222,-2.99156 q -0.493889,0 -0.931333,0.15523 -0.423333,0.14111 -0.776111,0.40922 -0.352778,0.26811 -0.606778,0.635 -0.254,0.35278 -0.395111,0.77611 h 4.487333 q 0.04233,-0.22578 0.04233,-0.42333 0,-0.762 -0.522112,-1.15711 -0.522111,-0.39512 -1.298222,-0.39512 z"
           style="font-style:italic;font-variant:normal;font-weight:normal;font-stretch:normal;font-size:14.1111px;font-family:'Space Mono';-inkscape-font-specification:'Space Mono, Italic';font-variant-ligatures:normal;font-variant-caps:normal;font-variant-numeric:normal;font-variant-east-asian:normal;fill:#000000;stroke:#000000;stroke-width:0.6;stroke-miterlimit:4;stroke-dasharray:none;stroke-opacity:1"
           id="path1563" />
        <path
           d="m 98.02359,161.90363 q -0.282222,0 -0.592667,0.0706 -0.296333,0.0705 -0.550333,0.21166 -0.239889,0.14111 -0.395111,0.36689 -0.155222,0.21167 -0.155222,0.508 0,0.45156 0.395111,0.67733 0.409222,0.22578 1.397,0.29634 1.016,0.0705 1.566333,0.508 0.564439,0.43744 0.564439,1.28411 0,0.59267 -0.253995,1.05833 -0.239888,0.46567 -0.677333,0.79022 -0.437444,0.31045 -1.044222,0.46567 -0.592667,0.16933 -1.312333,0.16933 -0.719667,0 -1.227667,-0.19755 -0.493889,-0.18345 -0.818444,-0.49389 -0.324556,-0.32456 -0.479778,-0.71967 -0.141111,-0.40922 -0.141111,-0.83255 0,-0.0706 0,-0.14111 0,-0.0847 0.01411,-0.15523 l 1.100666,-0.14111 q -0.01411,0.11289 -0.01411,0.14111 0,0.0282 0,0.0847 0,0.31045 0.08467,0.57856 0.09878,0.254 0.310444,0.45155 0.211667,0.18345 0.550334,0.29634 0.338666,0.11288 0.832555,0.11288 0.324556,0 0.663222,-0.0705 0.352778,-0.0847 0.635,-0.23989 0.282223,-0.16933 0.465667,-0.40922 0.183445,-0.254 0.183445,-0.60678 0,-0.55033 -0.451556,-0.73378 -0.437444,-0.19755 -1.312333,-0.26811 -1.001889,-0.0705 -1.580445,-0.47978 -0.564444,-0.40922 -0.564444,-1.28411 0,-0.49389 0.211667,-0.91722 0.211666,-0.42333 0.592666,-0.71967 0.395111,-0.31044 0.931334,-0.47977 0.550333,-0.16934 1.213555,-0.16934 0.649111,0 1.114778,0.18345 0.479778,0.16933 0.776108,0.45155 0.31045,0.28222 0.45156,0.64911 0.15522,0.35278 0.15522,0.73378 v 0.15522 l -1.086555,0.15523 v -0.0565 q 0,-0.0282 0,-0.0423 0.01411,-0.0282 0.01411,-0.0565 0,-0.53622 -0.409222,-0.86077 -0.395111,-0.32456 -1.157111,-0.32456 z"
           style="font-style:italic;font-variant:normal;font-weight:normal;font-stretch:normal;font-size:14.1111px;font-family:'Space Mono';-inkscape-font-specification:'Space Mono, Italic';font-variant-ligatures:normal;font-variant-caps:normal;font-variant-numeric:normal;font-variant-east-asian:normal;fill:#000000;stroke:#000000;stroke-width:0.6;stroke-miterlimit:4;stroke-dasharray:none;stroke-opacity:1"
           id="path1565" />
        <path
           d="m 105.60125,161.90363 q -0.28223,0 -0.59267,0.0706 -0.29633,0.0705 -0.55033,0.21166 -0.23989,0.14111 -0.39512,0.36689 -0.15522,0.21167 -0.15522,0.508 0,0.45156 0.39511,0.67733 0.40923,0.22578 1.397,0.29634 1.016,0.0705 1.56634,0.508 0.56444,0.43744 0.56444,1.28411 0,0.59267 -0.254,1.05833 -0.23989,0.46567 -0.67733,0.79022 -0.43745,0.31045 -1.04422,0.46567 -0.59267,0.16933 -1.31234,0.16933 -0.71966,0 -1.22766,-0.19755 -0.49389,-0.18345 -0.81845,-0.49389 -0.32455,-0.32456 -0.47978,-0.71967 -0.14111,-0.40922 -0.14111,-0.83255 0,-0.0706 0,-0.14111 0,-0.0847 0.0141,-0.15523 l 1.10067,-0.14111 q -0.0141,0.11289 -0.0141,0.14111 0,0.0282 0,0.0847 0,0.31045 0.0847,0.57856 0.0988,0.254 0.31044,0.45155 0.21167,0.18345 0.55033,0.29634 0.33867,0.11288 0.83256,0.11288 0.32455,0 0.66322,-0.0705 0.35278,-0.0847 0.635,-0.23989 0.28222,-0.16933 0.46567,-0.40922 0.18344,-0.254 0.18344,-0.60678 0,-0.55033 -0.45155,-0.73378 -0.43745,-0.19755 -1.31234,-0.26811 -1.00188,-0.0705 -1.58044,-0.47978 -0.56444,-0.40922 -0.56444,-1.28411 0,-0.49389 0.21166,-0.91722 0.21167,-0.42333 0.59267,-0.71967 0.39511,-0.31044 0.93133,-0.47977 0.55033,-0.16934 1.21356,-0.16934 0.64911,0 1.11477,0.18345 0.47978,0.16933 0.77612,0.45155 0.31044,0.28222 0.45155,0.64911 0.15522,0.35278 0.15522,0.73378 v 0.15522 l -1.08655,0.15523 v -0.0565 q 0,-0.0282 0,-0.0423 0.0141,-0.0282 0.0141,-0.0565 0,-0.53622 -0.40922,-0.86077 -0.39511,-0.32456 -1.15711,-0.32456 z"
           style="font-style:italic;font-variant:normal;font-weight:normal;font-stretch:normal;font-size:14.1111px;font-family:'Space Mono';-inkscape-font-specification:'Space Mono, Italic';font-variant-ligatures:normal;font-variant-caps:normal;font-variant-numeric:normal;font-variant-east-asian:normal;fill:#000000;stroke:#000000;stroke-width:0.6;stroke-miterlimit:4;stroke-dasharray:none;stroke-opacity:1"
           id="path1567" />
      </g>
    </g>
  </g>
</svg>
